<svg xmlns="http://www.w3.org/2000/svg" xmlns:xlink="http://www.w3.org/1999/xlink" width="1024" zoomAndPan="magnify" viewBox="0 0 768 767.999994" height="1024" preserveAspectRatio="xMidYMid meet" version="1.0"><path fill="#14b8a6" d="M 605.722656 287.945312 C 602.957031 298.109375 610.007812 306.144531 613.367188 314.097656 C 624.472656 340.328125 629.644531 367.738281 634.183594 395.457031 C 636.367188 408.777344 637.984375 422.175781 639.859375 435.542969 C 639.84375 445.964844 639.824219 456.40625 639.808594 466.832031 C 636.042969 491.042969 633.523438 515.335938 625.84375 538.964844 C 608.746094 591.542969 579.070312 634.890625 535.65625 669.058594 C 503.945312 694.015625 468.242188 710.339844 429.097656 719.277344 C 401.992188 725.464844 374.082031 727.488281 346.878906 724.027344 C 320.324219 720.648438 292.910156 716.707031 268.507812 704.777344 C 232.011719 686.953125 199.296875 663.871094 172.9375 631.902344 C 147.804688 601.402344 130.445312 567.414062 121.703125 529.347656 C 115.816406 503.714844 112.78125 477.5 116.753906 450.816406 C 118.726562 437.53125 119.746094 424.113281 123.511719 411.136719 C 124.464844 408.4375 125.46875 405.769531 126.339844 403.039062 C 135.90625 372.847656 150.828125 345.644531 170.769531 320.964844 C 188.046875 299.582031 207.847656 280.769531 227.566406 261.828125 C 247.996094 246.308594 268.152344 230.4375 288.9375 215.441406 C 301.332031 206.5 314.828125 198.855469 327.03125 189.886719 C 356.414062 168.246094 387.203125 147.667969 406.582031 114.683594 C 349.449219 160.488281 280.726562 188.691406 223.265625 239.359375 C 223.65625 219.867188 221.457031 203.042969 226.078125 186.347656 C 232.269531 156.234375 244.585938 129.132812 266.859375 107.539062 C 292.621094 82.566406 324.785156 70.492188 359.195312 62.429688 C 395.382812 53.941406 433.574219 52.101562 466.515625 32.089844 C 471.394531 29.117188 476.097656 25.804688 480.625 22.3125 C 485.941406 18.207031 488.867188 20.210938 490.804688 25.707031 C 491.128906 50.046875 488.414062 74.066406 485.632812 98.277344 C 481.253906 136.453125 468.148438 170.539062 448.167969 202.769531 C 422.714844 243.851562 385.265625 266.917969 339.121094 277.570312 C 315.457031 283.03125 291.523438 282.386719 267.535156 281.109375 C 263.980469 280.914062 260.230469 279.765625 257.015625 282.0625 C 231.542969 300.246094 211.644531 323.664062 198.601562 351.738281 C 190.796875 368.53125 184.976562 386.683594 183.457031 405.769531 C 181.292969 432.941406 178.917969 460.027344 186.660156 486.777344 C 186.886719 490.332031 186.367188 494.148438 187.484375 497.394531 C 194.644531 518.34375 202.804688 538.789062 216.65625 556.519531 C 241.320312 588.117188 271.753906 612.054688 310.449219 623.140625 C 340.964844 631.886719 372.058594 633.679688 404.078125 628.167969 C 463.023438 618 506.304688 587.097656 534.769531 535.25 C 542.558594 521.058594 548.554688 505.589844 549.476562 488.863281 C 549.800781 488.28125 549.816406 487.699219 549.523438 487.117188 C 551.851562 484.0625 553.4375 480.828125 551.773438 476.902344 C 552.644531 473.574219 553.515625 470.226562 554.375 466.898438 C 554.375 466.898438 554.40625 466.621094 554.40625 466.621094 C 556.734375 451.476562 556.910156 436.316406 554.808594 421.140625 L 555.070312 420.769531 L 554.585938 420.589844 C 552.402344 393.859375 548.539062 367.660156 538.484375 342.363281 C 530.050781 321.125 520.738281 300.585938 507.128906 282.222656 C 504.933594 279.25 503.929688 276.921875 504.820312 273.59375 C 518.621094 256.816406 532.246094 239.878906 546.324219 223.328125 C 553.648438 214.710938 556.894531 215.003906 563.667969 223.828125 C 576.96875 241.152344 588.589844 259.597656 598.722656 278.941406 C 600.535156 282.335938 601.308594 286.554688 605.722656 287.945312 Z M 605.722656 287.945312 " fill-opacity="1" fill-rule="nonzero"/></svg>