<svg xmlns="http://www.w3.org/2000/svg" xmlns:xlink="http://www.w3.org/1999/xlink" width="1024" zoomAndPan="magnify" viewBox="0 0 768 767.999994" height="1024" preserveAspectRatio="xMidYMid meet" version="1.0"><rect x="-76.8" width="921.6" fill="#ffffff" y="-76.799999" height="921.599993" fill-opacity="1"/><rect x="-76.8" width="921.6" fill="#ffffff" y="-76.799999" height="921.599993" fill-opacity="1"/><path fill="#10b988" d="M 605.90625 288.0625 C 603.140625 298.230469 610.1875 306.265625 613.550781 314.21875 C 624.65625 340.453125 629.828125 367.867188 634.371094 395.589844 C 636.554688 408.910156 638.167969 422.308594 640.042969 435.675781 C 640.027344 446.105469 640.011719 456.546875 639.996094 466.972656 C 636.230469 491.1875 633.707031 515.480469 626.03125 539.113281 C 608.929688 591.699219 579.25 635.050781 535.832031 669.222656 C 504.117188 694.179688 468.410156 710.507812 429.257812 719.445312 C 402.152344 725.636719 374.234375 727.65625 347.03125 724.199219 C 320.472656 720.820312 293.054688 716.875 268.648438 704.945312 C 232.148438 687.117188 199.429688 664.035156 173.066406 632.0625 C 147.929688 601.558594 130.570312 567.5625 121.824219 529.496094 C 115.941406 503.859375 112.902344 477.640625 116.878906 450.953125 C 118.851562 437.664062 119.871094 424.25 123.636719 411.269531 C 124.589844 408.570312 125.59375 405.902344 126.464844 403.171875 C 136.035156 372.976562 150.953125 345.769531 170.902344 321.085938 C 188.179688 299.703125 207.984375 280.886719 227.703125 261.941406 C 248.136719 246.421875 268.292969 230.550781 289.082031 215.550781 C 301.476562 206.609375 314.976562 198.964844 327.179688 189.992188 C 356.566406 168.347656 387.359375 147.769531 406.742188 114.777344 C 349.601562 160.589844 280.867188 188.796875 223.402344 239.472656 C 223.792969 219.976562 221.59375 203.152344 226.214844 186.453125 C 232.40625 156.339844 244.726562 129.230469 267 107.632812 C 292.765625 82.660156 324.933594 70.585938 359.347656 62.519531 C 395.539062 54.03125 433.738281 52.191406 466.679688 32.179688 C 471.5625 29.203125 476.265625 25.890625 480.792969 22.398438 C 486.109375 18.292969 489.035156 20.296875 490.976562 25.792969 C 491.296875 50.136719 488.582031 74.15625 485.800781 98.371094 C 481.421875 136.554688 468.3125 170.644531 448.332031 202.875 C 422.875 243.964844 385.421875 267.03125 339.269531 277.683594 C 315.605469 283.148438 291.667969 282.503906 267.679688 281.226562 C 264.121094 281.03125 260.371094 279.882812 257.15625 282.179688 C 231.679688 300.363281 211.78125 323.785156 198.738281 351.863281 C 190.929688 368.660156 185.109375 386.8125 183.589844 405.902344 C 181.425781 433.074219 179.046875 460.167969 186.789062 486.917969 C 187.015625 490.476562 186.5 494.289062 187.613281 497.539062 C 194.777344 518.488281 202.9375 538.9375 216.792969 556.667969 C 241.460938 588.269531 271.898438 612.210938 310.59375 623.300781 C 341.113281 632.042969 372.214844 633.839844 404.234375 628.328125 C 463.1875 618.160156 506.476562 587.253906 534.941406 535.398438 C 542.734375 521.203125 548.730469 505.734375 549.652344 489.003906 C 549.976562 488.421875 549.992188 487.839844 549.699219 487.257812 C 552.027344 484.203125 553.613281 480.972656 551.949219 477.042969 C 552.820312 473.710938 553.695312 470.367188 554.550781 467.035156 C 554.550781 467.035156 554.582031 466.761719 554.582031 466.761719 C 556.910156 451.617188 557.089844 436.453125 554.988281 421.273438 L 555.246094 420.902344 L 554.761719 420.726562 C 552.578125 393.988281 548.714844 367.785156 538.660156 342.488281 C 530.222656 321.25 520.910156 300.703125 507.300781 282.339844 C 505.101562 279.367188 504.101562 277.039062 504.988281 273.707031 C 518.792969 256.929688 532.421875 239.988281 546.5 223.4375 C 553.824219 214.820312 557.070312 215.113281 563.84375 223.9375 C 577.148438 241.265625 588.769531 259.710938 598.90625 279.058594 C 600.714844 282.453125 601.492188 286.671875 605.90625 288.0625 Z M 605.90625 288.0625 " fill-opacity="1" fill-rule="nonzero"/></svg>