<svg xmlns="http://www.w3.org/2000/svg" xmlns:xlink="http://www.w3.org/1999/xlink" width="1024" zoomAndPan="magnify" viewBox="0 0 768 767.999994" height="1024" preserveAspectRatio="xMidYMid meet" version="1.0"><path fill="#10b988" d="M 53.0625 307.050781 L 116.347656 402.792969 L 116.347656 306.15625 C 116.347656 299.875 117.699219 295.164062 120.390625 292.023438 C 123.085938 288.882812 126.722656 287.3125 131.304688 287.3125 C 136.035156 287.3125 139.761719 288.882812 142.496094 292.023438 C 145.226562 295.164062 146.601562 299.875 146.601562 306.15625 L 146.601562 433.933594 C 146.601562 448.195312 140.6875 455.320312 128.867188 455.320312 C 125.917969 455.320312 123.253906 454.894531 120.886719 454.050781 C 118.523438 453.195312 116.304688 451.851562 114.238281 450.003906 C 112.171875 448.15625 110.253906 446 108.472656 443.523438 C 106.703125 441.050781 104.925781 438.515625 103.15625 435.929688 L 41.4375 341.292969 L 41.4375 436.488281 C 41.4375 442.691406 39.996094 447.382812 37.113281 450.5625 C 34.230469 453.742188 30.53125 455.320312 26.03125 455.320312 C 21.378906 455.320312 17.640625 453.710938 14.839844 450.5 C 12.027344 447.292969 10.625 442.621094 10.625 436.488281 L 10.625 311.15625 C 10.625 305.839844 11.210938 301.664062 12.394531 298.632812 C 13.796875 295.304688 16.121094 292.589844 19.371094 290.484375 C 22.621094 288.378906 26.128906 287.324219 29.898438 287.324219 C 32.847656 287.324219 35.382812 287.800781 37.488281 288.765625 C 39.597656 289.730469 41.445312 291.019531 43.027344 292.640625 C 44.617188 294.269531 46.234375 296.367188 47.90625 298.960938 C 49.574219 301.546875 51.296875 304.238281 53.0625 307.050781 Z M 53.0625 307.050781 " fill-opacity="1" fill-rule="nonzero"/><path fill="#10b988" d="M 264.953125 401.246094 L 205.777344 401.246094 C 205.847656 408.113281 207.238281 414.175781 209.929688 419.421875 C 212.625 424.671875 216.210938 428.617188 220.683594 431.28125 C 225.15625 433.945312 230.085938 435.265625 235.472656 435.265625 C 239.09375 435.265625 242.402344 434.839844 245.394531 433.992188 C 248.386719 433.148438 251.285156 431.816406 254.089844 430.007812 C 256.894531 428.199219 259.476562 426.261719 261.84375 424.191406 C 264.207031 422.125 267.269531 419.3125 271.035156 415.773438 C 272.585938 414.441406 274.800781 413.777344 277.683594 413.777344 C 280.785156 413.777344 283.300781 414.632812 285.21875 416.320312 C 287.136719 418.019531 288.101562 420.417969 288.101562 423.527344 C 288.101562 426.261719 287.027344 429.460938 284.890625 433.109375 C 282.742188 436.765625 279.511719 440.273438 275.191406 443.632812 C 270.867188 446.992188 265.441406 449.785156 258.898438 452.003906 C 252.359375 454.21875 244.847656 455.320312 236.347656 455.320312 C 216.917969 455.320312 201.8125 449.785156 191.027344 438.703125 C 180.242188 427.621094 174.847656 412.585938 174.847656 393.601562 C 174.847656 384.667969 176.179688 376.367188 178.832031 368.722656 C 181.484375 361.082031 185.371094 354.519531 190.46875 349.054688 C 195.570312 343.589844 201.851562 339.394531 209.304688 336.472656 C 216.769531 333.550781 225.039062 332.097656 234.132812 332.097656 C 245.949219 332.097656 256.085938 334.59375 264.554688 339.582031 C 273.011719 344.574219 279.34375 351.011719 283.558594 358.925781 C 287.773438 366.824219 289.878906 374.886719 289.878906 383.085938 C 289.878906 390.699219 287.703125 395.628906 283.339844 397.875 C 278.988281 400.121094 272.855469 401.246094 264.953125 401.246094 Z M 205.777344 384.070312 L 260.628906 384.070312 C 259.894531 373.722656 257.101562 365.992188 252.261719 360.851562 C 247.421875 355.714844 241.050781 353.148438 233.148438 353.148438 C 225.613281 353.148438 219.421875 355.753906 214.582031 360.960938 C 209.742188 366.167969 206.808594 373.871094 205.777344 384.070312 Z M 205.777344 384.070312 " fill-opacity="1" fill-rule="nonzero"/><path fill="#10b988" d="M 391.832031 438.257812 C 384.519531 443.941406 377.441406 448.214844 370.613281 451.058594 C 363.777344 453.902344 356.113281 455.320312 347.617188 455.320312 C 339.863281 455.320312 333.046875 453.792969 327.171875 450.71875 C 321.296875 447.660156 316.773438 443.503906 313.59375 438.257812 C 310.414062 433.007812 308.832031 427.324219 308.832031 421.191406 C 308.832031 412.921875 311.457031 405.867188 316.707031 400.023438 C 321.953125 394.1875 329.160156 390.273438 338.3125 388.273438 C 340.230469 387.828125 345 386.832031 352.605469 385.28125 C 360.21875 383.730469 366.738281 382.3125 372.164062 381.019531 C 377.589844 379.726562 383.484375 378.15625 389.847656 376.308594 C 389.476562 368.328125 387.867188 362.472656 385.027344 358.746094 C 382.183594 355.019531 376.289062 353.148438 367.355469 353.148438 C 359.671875 353.148438 353.886719 354.222656 350.011719 356.359375 C 346.132812 358.507812 342.804688 361.71875 340.03125 366 C 337.257812 370.285156 335.300781 373.117188 334.15625 374.480469 C 333.015625 375.851562 330.558594 376.527344 326.792969 376.527344 C 323.394531 376.527344 320.453125 375.433594 317.988281 373.257812 C 315.511719 371.078125 314.269531 368.285156 314.269531 364.886719 C 314.269531 359.570312 316.160156 354.402344 319.925781 349.371094 C 323.691406 344.355469 329.566406 340.210938 337.546875 336.960938 C 345.527344 333.710938 355.46875 332.078125 367.355469 332.078125 C 380.652344 332.078125 391.109375 333.648438 398.710938 336.789062 C 406.316406 339.929688 411.691406 344.902344 414.832031 351.699219 C 417.972656 358.496094 419.542969 367.511719 419.542969 378.742188 C 419.542969 385.839844 419.523438 391.863281 419.484375 396.800781 C 419.445312 401.75 419.394531 407.257812 419.316406 413.308594 C 419.316406 418.996094 420.257812 424.929688 422.136719 431.101562 C 424.015625 437.273438 424.960938 441.238281 424.960938 443.019531 C 424.960938 446.117188 423.5 448.941406 420.585938 451.496094 C 417.664062 454.039062 414.367188 455.324219 410.667969 455.324219 C 407.566406 455.324219 404.496094 453.859375 401.476562 450.949219 C 398.441406 448.027344 395.234375 443.804688 391.832031 438.257812 Z M 389.847656 394.484375 C 385.414062 396.117188 378.964844 397.824219 370.503906 399.632812 C 362.046875 401.441406 356.191406 402.773438 352.941406 403.621094 C 349.691406 404.472656 346.589844 406.132812 343.628906 408.609375 C 340.679688 411.082031 339.195312 414.53125 339.195312 418.964844 C 339.195312 423.546875 340.9375 427.445312 344.40625 430.652344 C 347.875 433.863281 352.414062 435.472656 358.03125 435.472656 C 364.015625 435.472656 369.539062 434.160156 374.601562 431.539062 C 379.660156 428.914062 383.375 425.535156 385.742188 421.402344 C 388.472656 416.820312 389.847656 409.285156 389.847656 398.789062 Z M 389.847656 394.484375 " fill-opacity="1" fill-rule="nonzero"/><path fill="#10b988" d="M 550.855469 396.035156 L 550.855469 436.257812 C 550.855469 442.609375 549.417969 447.382812 546.535156 450.550781 C 543.652344 453.730469 539.84375 455.3125 535.125 455.3125 C 530.542969 455.3125 526.835938 453.722656 523.980469 450.550781 C 521.140625 447.371094 519.71875 442.609375 519.71875 436.257812 L 519.71875 388.054688 C 519.71875 380.441406 519.460938 374.539062 518.941406 370.324219 C 518.425781 366.109375 517.023438 362.660156 514.730469 359.957031 C 512.441406 357.265625 508.816406 355.914062 503.867188 355.914062 C 493.964844 355.914062 487.445312 359.3125 484.304688 366.109375 C 481.164062 372.910156 479.59375 382.660156 479.59375 395.371094 L 479.59375 436.257812 C 479.59375 442.539062 478.171875 447.28125 475.332031 450.5 C 472.488281 453.710938 468.742188 455.320312 464.082031 455.320312 C 459.5 455.320312 455.75 453.710938 452.828125 450.5 C 449.90625 447.292969 448.457031 442.539062 448.457031 436.257812 L 448.457031 349.710938 C 448.457031 344.027344 449.769531 339.703125 452.390625 336.75 C 455.015625 333.796875 458.464844 332.316406 462.75 332.316406 C 466.882812 332.316406 470.34375 333.699219 473.113281 336.472656 C 475.886719 339.246094 477.269531 343.0625 477.269531 347.941406 L 477.269531 350.824219 C 482.515625 344.542969 488.132812 339.929688 494.117188 336.96875 C 500.097656 334.015625 506.75 332.535156 514.0625 332.535156 C 521.675781 332.535156 528.207031 334.046875 533.683594 337.078125 C 539.148438 340.109375 543.660156 344.691406 547.199219 350.824219 C 552.296875 344.621094 557.765625 340.019531 563.597656 337.027344 C 569.433594 334.035156 575.902344 332.535156 582.988281 332.535156 C 591.257812 332.535156 598.394531 334.167969 604.378906 337.417969 C 610.363281 340.667969 614.835938 345.316406 617.785156 351.378906 C 620.371094 356.847656 621.664062 365.453125 621.664062 377.203125 L 621.664062 436.269531 C 621.664062 442.621094 620.222656 447.390625 617.339844 450.5625 C 614.457031 453.742188 610.648438 455.320312 605.929688 455.320312 C 601.347656 455.320312 597.601562 453.710938 594.679688 450.5 C 591.757812 447.292969 590.304688 442.539062 590.304688 436.257812 L 590.304688 385.390625 C 590.304688 378.890625 590.027344 373.683594 589.46875 369.765625 C 588.914062 365.851562 587.421875 362.5625 584.976562 359.90625 C 582.542969 357.246094 578.84375 355.921875 573.894531 355.921875 C 569.910156 355.921875 566.125 357.105469 562.535156 359.472656 C 558.949219 361.835938 556.164062 365.007812 554.167969 369.003906 C 551.96875 374.101562 550.855469 383.105469 550.855469 396.035156 Z M 550.855469 396.035156 " fill-opacity="1" fill-rule="nonzero"/><path fill="#10b988" d="M 727.503906 438.257812 C 720.1875 443.941406 713.109375 448.214844 706.28125 451.058594 C 699.445312 453.902344 691.78125 455.320312 683.285156 455.320312 C 675.53125 455.320312 668.714844 453.792969 662.839844 450.71875 C 656.964844 447.648438 652.445312 443.503906 649.261719 438.257812 C 646.082031 433.007812 644.503906 427.324219 644.503906 421.191406 C 644.503906 412.921875 647.125 405.867188 652.375 400.023438 C 657.621094 394.1875 664.816406 390.273438 673.980469 388.273438 C 675.898438 387.828125 680.671875 386.832031 688.273438 385.28125 C 695.886719 383.730469 702.40625 382.3125 707.832031 381.019531 C 713.261719 379.726562 719.152344 378.15625 725.503906 376.308594 C 725.136719 368.328125 723.527344 362.472656 720.683594 358.746094 C 717.84375 355.019531 711.949219 353.148438 703.011719 353.148438 C 695.332031 353.148438 689.546875 354.222656 685.667969 356.359375 C 681.792969 358.507812 678.464844 361.71875 675.691406 366 C 672.917969 370.285156 670.960938 373.117188 669.816406 374.480469 C 668.675781 375.851562 666.21875 376.527344 662.453125 376.527344 C 659.054688 376.527344 656.109375 375.433594 653.644531 373.257812 C 651.171875 371.078125 649.929688 368.285156 649.929688 364.886719 C 649.929688 359.570312 651.816406 354.402344 655.585938 349.371094 C 659.351562 344.355469 665.226562 340.210938 673.207031 336.960938 C 681.1875 333.710938 691.117188 332.078125 703.011719 332.078125 C 716.3125 332.078125 726.765625 333.648438 734.371094 336.789062 C 741.972656 339.929688 747.351562 344.902344 750.492188 351.699219 C 753.632812 358.496094 755.203125 367.511719 755.203125 378.742188 C 755.203125 385.839844 755.183594 391.863281 755.144531 396.800781 C 755.101562 401.75 755.054688 407.257812 754.972656 413.308594 C 754.972656 418.996094 755.917969 424.929688 757.796875 431.101562 C 759.683594 437.273438 760.621094 441.238281 760.621094 443.019531 C 760.621094 446.117188 759.160156 448.941406 756.246094 451.496094 C 753.324219 454.039062 750.023438 455.324219 746.328125 455.324219 C 743.226562 455.324219 740.15625 453.859375 737.132812 450.949219 C 734.113281 448.027344 730.902344 443.804688 727.503906 438.257812 Z M 725.515625 394.484375 C 721.082031 396.117188 714.632812 397.824219 706.171875 399.632812 C 697.714844 401.441406 691.863281 402.773438 688.613281 403.621094 C 685.359375 404.472656 682.261719 406.132812 679.296875 408.609375 C 676.347656 411.082031 674.867188 414.53125 674.867188 418.964844 C 674.867188 423.546875 676.605469 427.445312 680.074219 430.652344 C 683.542969 433.863281 688.085938 435.472656 693.699219 435.472656 C 699.683594 435.472656 705.210938 434.160156 710.269531 431.539062 C 715.328125 428.914062 719.042969 425.535156 721.410156 421.402344 C 724.144531 416.820312 725.515625 409.285156 725.515625 398.789062 Z M 725.515625 394.484375 " fill-opacity="1" fill-rule="nonzero"/><path fill="#10b988" d="M 113.34375 277.820312 C 116.058594 269.792969 118.511719 265.746094 118.511719 265.746094 C 117.9375 263.609375 117.828125 255.46875 120.539062 248.660156 C 127.46875 231.257812 148.777344 220.671875 175.722656 236.753906 C 167.871094 238.214844 162.414062 253.609375 155.039062 264.277344 C 152.078125 268.558594 145.546875 276.035156 135.320312 275.019531 C 130.589844 274.632812 126.007812 272.742188 125.269531 270.796875 C 125.71875 267.175781 141.125 244.527344 155.65625 239.4375 C 132.109375 246.285156 119 273.527344 117.847656 279.066406 Z M 113.34375 277.820312 " fill-opacity="1" fill-rule="evenodd"/></svg>