<svg xmlns="http://www.w3.org/2000/svg" xmlns:xlink="http://www.w3.org/1999/xlink" width="1024" zoomAndPan="magnify" viewBox="0 0 768 767.999994" height="1024" preserveAspectRatio="xMidYMid meet" version="1.0"><path fill="#14b8a6" d="M 159.195312 422.917969 L 186.058594 422.917969 C 188.488281 422.917969 190.457031 424.882812 190.457031 427.316406 L 190.457031 460.554688 C 190.457031 462.984375 188.488281 464.953125 186.058594 464.953125 L 155.027344 464.953125 C 135.011719 464.953125 119.195312 458.75 107.589844 446.351562 C 106.125 444.78125 103.75 444.414062 101.960938 445.59375 C 92.601562 451.785156 81.460938 454.886719 68.539062 454.886719 C 47.226562 454.886719 30.203125 446.894531 17.476562 430.917969 C 7.050781 417.722656 1.839844 401.855469 1.839844 383.332031 C 1.839844 360.402344 9.25 341.765625 24.070312 327.40625 C 36.578125 315.367188 51.042969 309.339844 67.492188 309.339844 C 73.855469 309.339844 79.84375 310.242188 85.441406 312.023438 C 88.25 312.925781 91.109375 310.765625 91.109375 307.820312 C 91.109375 306.191406 92.011719 304.691406 93.453125 303.933594 L 125.925781 286.789062 C 129.832031 284.722656 134.527344 287.554688 134.527344 291.96875 L 134.527344 397.914062 C 134.527344 406.941406 136.4375 413.375 140.265625 417.191406 C 144.082031 421.007812 150.386719 422.917969 159.195312 422.917969 Z M 91.109375 367.136719 C 91.109375 360.21875 86.78125 353.914062 80.191406 351.792969 C 77.148438 350.8125 73.960938 350.320312 70.609375 350.320312 C 62.96875 350.320312 56.765625 353.449219 52.03125 359.695312 C 47.285156 365.945312 44.910156 374.167969 44.910156 384.359375 C 44.910156 394.550781 47.226562 402.660156 51.855469 408.675781 C 56.488281 414.703125 62.851562 417.707031 70.960938 417.707031 C 78.980469 417.707031 85.375 415.207031 90.132812 410.1875 C 90.964844 409.304688 91.371094 408.113281 91.292969 406.902344 C 91.167969 405.148438 91.109375 402.84375 91.109375 399.988281 Z M 91.109375 367.136719 " fill-opacity="1" fill-rule="nonzero"/><path fill="#14b8a6" d="M 390.53125 422.917969 L 417.046875 422.917969 C 419.476562 422.917969 421.445312 424.882812 421.445312 427.316406 L 421.445312 460.554688 C 421.445312 462.984375 419.476562 464.953125 417.046875 464.953125 L 386.019531 464.953125 C 370.808594 464.953125 358.109375 461.386719 347.917969 454.265625 C 346.210938 453.074219 343.90625 453.308594 342.394531 454.742188 C 330.246094 466.179688 314.679688 471.90625 295.710938 471.90625 C 276.324219 471.90625 260.75 466.199219 248.976562 454.789062 C 247.484375 453.335938 245.179688 453.054688 243.457031 454.226562 C 232.878906 461.386719 220.070312 464.960938 205.042969 464.960938 L 174.015625 464.960938 C 171.585938 464.960938 169.617188 462.996094 169.617188 460.5625 L 169.617188 427.324219 C 169.617188 424.894531 171.585938 422.925781 174.015625 422.925781 L 200.878906 422.925781 C 209.675781 422.925781 215.933594 421.019531 219.632812 417.191406 C 223.335938 413.363281 225.195312 406.941406 225.195312 397.914062 L 225.195312 387.839844 C 225.195312 360.742188 232.257812 339.671875 246.382812 324.617188 C 258.65625 311.414062 275.09375 304.816406 295.710938 304.816406 C 319.097656 304.816406 337.164062 313.390625 349.894531 330.515625 C 360.539062 345.105469 365.867188 364.210938 365.867188 387.828125 L 365.867188 397.902344 C 365.867188 406.933594 367.777344 413.363281 371.601562 417.183594 C 375.417969 421.007812 381.734375 422.917969 390.53125 422.917969 Z M 295.710938 429.863281 C 313.304688 429.863281 322.109375 415.507812 322.109375 386.792969 C 322.109375 359.242188 313.304688 345.457031 295.710938 345.457031 C 277.875 345.457031 268.964844 359.230469 268.964844 386.792969 C 268.964844 415.515625 277.867188 429.863281 295.710938 429.863281 Z M 295.710938 429.863281 " fill-opacity="1" fill-rule="nonzero"/><path fill="#14b8a6" d="M 584.980469 422.917969 L 662.363281 422.917969 C 664.765625 422.917969 666.722656 424.84375 666.761719 427.238281 L 667.316406 460.476562 C 667.351562 462.9375 665.378906 464.941406 662.917969 464.941406 L 567 464.941406 C 555.925781 464.941406 545.464844 462.402344 535.613281 457.308594 C 534.371094 456.667969 532.917969 456.648438 531.667969 457.277344 C 521.410156 462.394531 510.957031 464.941406 500.300781 464.941406 L 405.003906 464.941406 C 402.574219 464.941406 400.605469 462.976562 400.605469 460.542969 L 400.605469 427.304688 C 400.605469 424.875 402.574219 422.90625 405.003906 422.90625 L 481.488281 422.90625 C 485.703125 422.90625 487.496094 417.550781 484.132812 415.003906 C 478.417969 410.671875 473.390625 406.46875 469.039062 402.410156 C 465.097656 398.929688 459.082031 392.460938 450.980469 382.957031 C 450.953125 382.925781 450.933594 382.898438 450.90625 382.867188 C 446.921875 378.171875 444.722656 372.210938 444.722656 366.0625 C 444.722656 358.816406 447.242188 351.800781 451.804688 346.171875 C 460.777344 335.097656 471.558594 325.945312 484.152344 318.699219 C 500.242188 309.4375 516.742188 304.804688 533.65625 304.804688 C 550.328125 304.804688 566.769531 309.496094 582.976562 318.871094 C 594.726562 325.671875 605.015625 334.148438 613.847656 344.292969 C 619.921875 351.277344 623.265625 360.21875 623.265625 369.480469 C 623.265625 373.53125 621.8125 377.453125 619.15625 380.515625 C 607.832031 393.554688 595.558594 405.042969 582.34375 415.003906 C 578.964844 417.558594 580.757812 422.917969 584.980469 422.917969 Z M 535.992188 404.09375 C 550.707031 392.1875 561.992188 380.183594 569.859375 368.09375 C 571.050781 366.265625 570.710938 363.824219 569.0625 362.390625 C 556.199219 351.101562 544.050781 345.457031 532.601562 345.457031 C 521.554688 345.457031 510.113281 351.121094 498.265625 362.457031 C 496.773438 363.890625 496.484375 366.167969 497.550781 367.941406 C 505.863281 381.714844 516.847656 393.796875 530.515625 404.179688 C 532.144531 405.421875 534.402344 405.382812 535.992188 404.09375 Z M 535.992188 404.09375 " fill-opacity="1" fill-rule="nonzero"/><path fill="#14b8a6" d="M 646.535156 456.609375 L 646.535156 431.257812 C 646.535156 426.65625 650.265625 422.917969 654.875 422.917969 L 677.796875 422.917969 C 686.59375 422.917969 692.851562 421.007812 696.550781 417.183594 C 700.253906 413.355469 702.113281 406.933594 702.113281 397.902344 L 702.113281 344.640625 C 702.113281 337.878906 705.863281 331.679688 711.847656 328.550781 L 733.664062 317.121094 C 739.214844 314.214844 745.871094 318.234375 745.871094 324.5 L 745.871094 399.996094 C 745.871094 421.078125 739.390625 437.507812 726.417969 449.324219 C 715.066406 459.75 700.242188 464.960938 681.953125 464.960938 L 654.855469 464.960938 C 650.273438 464.953125 646.535156 461.222656 646.535156 456.609375 Z M 705.628906 252.339844 C 705.648438 252.269531 705.707031 252.347656 705.550781 252.347656 C 705.378906 252.347656 705.394531 252.261719 705.394531 252.339844 C 705.386719 252.417969 705.503906 252.300781 705.628906 252.339844 C 705.746094 252.386719 705.675781 252.359375 705.628906 252.347656 C 705.183594 252.28125 705.511719 252.378906 705.628906 252.339844 C 705.746094 252.300781 705.5625 252.40625 705.628906 252.339844 C 705.675781 252.289062 705.621094 252.347656 705.628906 252.339844 Z M 705.628906 252.339844 " fill-opacity="1" fill-rule="nonzero"/><path fill="#14b8a6" d="M 688.144531 292.359375 C 691.535156 282.320312 694.605469 277.273438 694.605469 277.273438 C 693.886719 274.609375 693.753906 264.429688 697.132812 255.933594 C 705.785156 234.195312 732.414062 220.96875 766.070312 241.054688 C 756.257812 242.875 749.445312 262.105469 740.234375 275.433594 C 736.53125 280.78125 728.367188 290.128906 715.585938 288.851562 C 709.679688 288.375 703.953125 286.011719 703.03125 283.570312 C 703.585938 279.058594 722.835938 250.75 740.988281 244.394531 C 711.566406 252.949219 695.195312 286.992188 693.753906 293.90625 Z M 688.144531 292.359375 " fill-opacity="1" fill-rule="evenodd"/></svg>